<svg xmlns:inkscape="http://www.inkscape.org/namespaces/inkscape" xmlns:sodipodi="http://sodipodi.sourceforge.net/DTD/sodipodi-0.dtd" xmlns="http://www.w3.org/2000/svg" xmlns:svg="http://www.w3.org/2000/svg" version="1.1" id="svg2" sodipodi:docname="swoosh.eps" viewBox="6749.2 1258.68 1675.05 354.37">  <defs id="defs6"></defs>  <sodipodi:namedview id="namedview4" pagecolor="#ffffff" bordercolor="#000000" borderopacity="0.25" inkscape:showpageshadow="2" inkscape:pageopacity="0.0" inkscape:pagecheckerboard="0" inkscape:deskcolor="#d1d1d1"></sodipodi:namedview>  <g id="g8" inkscape:groupmode="layer" inkscape:label="ink_ext_XXXXXX" transform="matrix(1.3333333,0,0,-1.3333333,0,3041.1333)">    <g id="g10" transform="scale(0.1)">         <path xmlns="http://www.w3.org/2000/svg" d="m 50619.5,11470.6 c 54.2,196.4 148.7,378.4 261.6,548.7 57,84.9 120,166.3 189.5,242.3 34,38.8 70.5,75.3 106.8,112.2 38.5,34.5 75.9,70.4 116.8,102.5 79,67.3 164.9,127.2 255.3,179.2 45.9,25 92.1,49.2 140.5,69 24.1,10.2 47.6,21.2 72,30.6 l 74.2,24.7 c 198.4,65.3 406.1,86.3 608,93.8 202.6,5.8 403.9,-1.8 605.2,-25.6 200.8,-23.6 403.5,-60.5 603.8,-130.1 98.9,-37 199.1,-78.8 291.5,-138.8 47.6,-27.6 91.5,-62.3 136.4,-96.1 42,-37.5 84,-75.8 121.8,-119.5 77.2,-85.5 140.8,-187.5 183.4,-300.9 43.4,-112.7 60.5,-240.4 37.4,-364.3 -39.8,-250.7 -245,-462.3 -471.1,-515.9 -28.4,-7 -56.5,-13.1 -85.1,-14.6 -28.4,-3.8 -56.6,-4.1 -84.5,-2.5 -28.1,-0.3 -55.3,4 -82.3,8.2 -26.5,2.4 -55.1,11.4 -83,20.3 -112.8,36 -195.5,124.8 -244.2,217.9 -97.1,190.6 -107,399.8 -90.9,600.9 21.2,201.6 77.8,401.3 177.5,583.6 96.3,183.5 240.1,349.5 423.7,466.8 182,119.2 401,184.6 617.4,195.1 217.3,11.5 430.5,-26.3 631,-87.1 202.8,-57.8 389.9,-147.6 574.3,-238.3 706.4,-373.7 1374.9,-808 2055.8,-1208.9 339.9,-202 686.2,-392.3 1047.5,-547.5 l 135.5,-58.5 138.3,-50.4 c 92.5,-32.6 183.6,-70.5 278.8,-94.2 l 141.9,-38.6 c 47.4,-12.5 94.3,-27.3 142.8,-34.4 l 288.9,-52.5 c 388.3,-56.2 784.8,-26 1162.9,64.2 379,87.2 743.9,241.6 1040.1,457.5 297.3,216.3 507.6,502.9 592.7,837.3 42.1,167.2 66.2,342.3 77.7,526.7 13.2,185 10,375.3 27.4,585.4 2.5,29.8 28.6,51.9 58.4,49.4 17.5,-1.4 32.4,-11 41.2,-24.8 l 1.2,-1.9 c 110.4,-175.3 186.3,-375.6 221.8,-587.2 36.9,-211.4 29.3,-436.7 -28.5,-653.7 -58.8,-216.3 -162.5,-424.8 -307.6,-596.4 -141.8,-174.9 -321.8,-308.6 -508.6,-412.3 -378.5,-204.7 -785.3,-294.4 -1186.5,-340.7 -401.4,-51.3 -806.7,-55.2 -1205.9,-4.4 l -296.6,53.7 c -98.9,17.9 -194.3,50.2 -291.7,74.1 -98.2,21.8 -191.8,57.8 -287.2,88.6 l -142.6,47.8 -139.3,55.8 c -187.2,71.7 -369.1,154.2 -551.3,236.7 -179.2,87.6 -359.9,172.9 -536.5,265.1 -355.2,180.8 -703.5,372.1 -1053.7,557.2 -350.3,185.5 -699.3,369.5 -1051,548 -340.2,173 -704.7,294.9 -1065.5,305.4 -179.9,4.4 -358.3,-24.3 -523.8,-97.1 -84.3,-33.8 -160,-85.9 -234,-141.7 -70.5,-59.7 -137.4,-127.1 -192.1,-204.8 -57.8,-75.7 -100.2,-162.4 -138.9,-250.6 -35.6,-89.6 -59.6,-183.9 -74.9,-279.6 -12.3,-95.8 -16.6,-193.9 -1.2,-289.3 14.9,-94.7 45.6,-188.1 98,-264 51.4,-76.7 128,-129.2 208.7,-142 20.3,-3 39.7,-6.9 63.2,-5.1 22.4,0.1 44.6,0 66.1,4 21.8,2.2 43.1,5.8 63.3,12.3 20.9,4.2 40.3,12.3 59.3,20.4 76.7,30.9 135.6,90.8 166,161.5 31.6,70.6 35.6,148.3 29.6,221.9 -7.3,73.9 -20.7,146.4 -43.3,220.5 -23.3,73.8 -60.5,145.6 -105.9,215.7 -93.8,137.9 -228.2,263.5 -386.4,363.5 -158.6,100.3 -340.4,174.3 -529.7,220.6 -189,46.3 -386.6,66.1 -579.6,40 -193.2,-24.1 -377.6,-90.3 -546.1,-176.5 -169.3,-85.3 -328.4,-184.4 -480.8,-296.7 -301.5,-229.5 -558.9,-523.3 -781.3,-851.5 l -0.5,-0.7 c -4,-5.9 -12,-7.4 -17.9,-3.4 -4.7,3.1 -6.6,8.9 -5.2,14" style="fill:#121213;fill-opacity:1;fill-rule:nonzero;stroke:none" id="path50"></path>    </g>  </g></svg>